# xmcd CD database file
#
# Track frame offsets:
#	150
#	9961
#	21481
#	35384
#	47670
#	58244
#	71828
#	82176
#	95092
#	107655
#	119620
#	129010
#	141813
#	153067
#	164442
#	174597
#	186053
#	197243
#	209876
#	222617
#	233550
#	245793
#	258510
#
# Disc length: 3620 seconds
#
# Revision: 0
# Processed by: cddbd v1.5.2PL0 Copyright (c) Steve Scherf et al.
# Submitted via: CDex 1.51
#
DISCID=5a0e2217
DTITLE=Kenny Parrott - Kenny Parrott 23 Songs v2
DYEAR=2006
DGENRE=Country
TTITLE0=From A Jack To A King
TTITLE1=Sweet Dreams
TTITLE2=Have You Ever Been Lonely?
TTITLE3=Help Me Make It Through The Night
TTITLE4=The Wings Of A Dove
TTITLE5=Are You Lonesome Tonight?
TTITLE6=Blue Eyes Crying In the Rain
TTITLE7=Let's Chase Each Other Around The Room Tonight
TTITLE8=Spanish Eyes
TTITLE9=Young Love
TTITLE10=Kiss An Angel Good Mornin'
TTITLE11=Four Walls
TTITLE12=Singin' The Blues
TTITLE13=Among My Souvenirs
TTITLE14=San Antonio Rose
TTITLE15=The 12th Of Never
TTITLE16=King of The Road
TTITLE17=Waltz Across Texas
TTITLE18=Ruby, Don't Take Your Love To Town
TTITLE19=Hello Walls
TTITLE20=Always
TTITLE21=Lovesick Blues
TTITLE22=I Fall To Pieces
EXTD=YEAR: 2006
EXTT0=
EXTT1=
EXTT2=
EXTT3=
EXTT4=
EXTT5=
EXTT6=
EXTT7=
EXTT8=
EXTT9=
EXTT10=
EXTT11=
EXTT12=
EXTT13=
EXTT14=
EXTT15=
EXTT16=
EXTT17=
EXTT18=
EXTT19=
EXTT20=
EXTT21=
EXTT22=
PLAYORDER=
